<svg width="400" height="200" xmlns="http://www.w3.org/2000/svg">
  <rect width="400" height="200" fill="#1e2227"/>
  <rect x="130" y="15" width="140" height="35" rx="6" fill="#c678dd" opacity="0.8"/>
  <text x="200" y="37" fill="#1e2227" font-family="system-ui" font-size="11" text-anchor="middle">Spatium SDK</text>
  <rect x="130" y="65" width="140" height="30" rx="6" fill="#61afef" opacity="0.8"/>
  <text x="200" y="85" fill="#1e2227" font-family="system-ui" font-size="10" text-anchor="middle">Abstraction Layer</text>
  <rect x="30" y="130" width="80" height="50" rx="6" fill="#d19a66" opacity="0.8"/>
  <text x="70" y="152" fill="#1e2227" font-family="system-ui" font-size="9" text-anchor="middle">Meta</text>
  <text x="70" y="165" fill="#1e2227" font-family="system-ui" font-size="9" text-anchor="middle">Quest</text>
  <rect x="160" y="130" width="80" height="50" rx="6" fill="#98c379" opacity="0.8"/>
  <text x="200" y="152" fill="#1e2227" font-family="system-ui" font-size="9" text-anchor="middle">Apple</text>
  <text x="200" y="165" fill="#1e2227" font-family="system-ui" font-size="9" text-anchor="middle">Vision Pro</text>
  <rect x="290" y="130" width="80" height="50" rx="6" fill="#56b6c2" opacity="0.8"/>
  <text x="330" y="152" fill="#1e2227" font-family="system-ui" font-size="9" text-anchor="middle">Microsoft</text>
  <text x="330" y="165" fill="#1e2227" font-family="system-ui" font-size="9" text-anchor="middle">HoloLens</text>
  <line x1="200" y1="50" x2="200" y2="65" stroke="#9ca3af" stroke-width="1"/>
  <line x1="200" y1="95" x2="70" y2="130" stroke="#9ca3af" stroke-width="1"/>
  <line x1="200" y1="95" x2="200" y2="130" stroke="#9ca3af" stroke-width="1"/>
  <line x1="200" y1="95" x2="330" y2="130" stroke="#9ca3af" stroke-width="1"/>
</svg>
