<svg width="400" height="200" xmlns="http://www.w3.org/2000/svg">
  <rect width="400" height="200" fill="#1e2227"/>
  <rect x="160" y="20" width="80" height="35" rx="6" fill="#d19a66" opacity="0.8"/>
  <text x="200" y="42" fill="#1e2227" font-family="system-ui" font-size="10" text-anchor="middle">API Gateway</text>
  <rect x="40" y="90" width="70" height="35" rx="6" fill="#61afef" opacity="0.8"/>
  <text x="75" y="112" fill="#1e2227" font-family="system-ui" font-size="9" text-anchor="middle">Catalog</text>
  <rect x="125" y="90" width="70" height="35" rx="6" fill="#c678dd" opacity="0.8"/>
  <text x="160" y="112" fill="#1e2227" font-family="system-ui" font-size="9" text-anchor="middle">Orders</text>
  <rect x="210" y="90" width="70" height="35" rx="6" fill="#98c379" opacity="0.8"/>
  <text x="245" y="112" fill="#1e2227" font-family="system-ui" font-size="9" text-anchor="middle">Inventory</text>
  <rect x="295" y="90" width="70" height="35" rx="6" fill="#e06c75" opacity="0.8"/>
  <text x="330" y="112" fill="#1e2227" font-family="system-ui" font-size="9" text-anchor="middle">Payments</text>
  <rect x="130" y="155" width="140" height="30" rx="6" fill="#56b6c2" opacity="0.8"/>
  <text x="200" y="175" fill="#1e2227" font-family="system-ui" font-size="10" text-anchor="middle">Event Bus (Kafka)</text>
  <line x1="200" y1="55" x2="75" y2="90" stroke="#9ca3af" stroke-width="1"/>
  <line x1="200" y1="55" x2="160" y2="90" stroke="#9ca3af" stroke-width="1"/>
  <line x1="200" y1="55" x2="245" y2="90" stroke="#9ca3af" stroke-width="1"/>
  <line x1="200" y1="55" x2="330" y2="90" stroke="#9ca3af" stroke-width="1"/>
  <line x1="75" y1="125" x2="130" y2="155" stroke="#9ca3af" stroke-width="1" stroke-dasharray="4"/>
  <line x1="160" y1="125" x2="180" y2="155" stroke="#9ca3af" stroke-width="1" stroke-dasharray="4"/>
  <line x1="245" y1="125" x2="220" y2="155" stroke="#9ca3af" stroke-width="1" stroke-dasharray="4"/>
  <line x1="330" y1="125" x2="270" y2="155" stroke="#9ca3af" stroke-width="1" stroke-dasharray="4"/>
</svg>
